<svg xmlns="http://www.w3.org/2000/svg" viewBox="0 0 5880.59 4948.87">
  <defs fill="#000000">
    <style>
      .cls-1 {
        fill: #000000;
      }
    </style>
  </defs>
  <g id="Logo">
    <g id="Laurel">
      <path class="cls-1" d="M2964.84,4677.05c-22.81-4.89-31.48-4.48-57.49,2.45-63.88,16.71-97.18,81.9-70.26,136.09,39.24,79.86,163.8,81.08,204.86,2.04,30.11-57.45-7.3-125.9-77.11-140.57Z" fill="#000000"/>
      <path class="cls-1" d="M2568.14,4702.06c33.77,3.61,143.42,5.53,148.85,2.4,4.17-2.4-6.67-49.54-15.84-69.74-48.36-105.57-197.63-170.02-477.39-206.58-36.69-4.81-72.55-9.62-79.22-10.58-7.09-1.2-12.93-1.2-13.76-.48-1.67,2.4,42.53,62.05,64.62,87.54,102.15,117.6,221.39,180.6,372.74,197.44Z" fill="#000000"/>
      <path class="cls-1" d="M2521.02,4750.79c-66.39-5.73-142.9,5.21-221.29,31.75-70.89,24.2-124.15,49.97-214.92,104.1l-46.13,27.59,48.01,8.33c198.04,34.61,339.82,34.35,453.47-.52,55.51-16.92,121.15-56.73,158.66-96.03l19.5-20.82-19.88-8.85c-55.14-24.2-117.77-40.34-177.41-45.54Z" fill="#000000"/>
      <path class="cls-1" d="M1791.64,4270.89c-32.69-15.63-64.6-31.01-70.51-33.94-6.21-3.28-11.7-5.04-12.76-4.62-2.48,1.76,16.46,71.25,27.57,101.92,51.46,141.56,139.73,236.93,275.73,298.58,30.4,13.62,132.83,48.62,139.12,47.32,4.84-1,12.53-48.63,11.57-70.41-5.43-113.96-121.39-219.78-370.72-338.86Z" fill="#000000"/>
      <path class="cls-1" d="M2113.81,4775.3l-15.34-14.34c-42.69-39.46-95.49-73.6-149.62-96.55-60.28-25.48-136.42-38.36-220.24-37.12-75.88,1.31-135.77,9.43-241.71,32.87l-53.87,11.99,42.01,22.37c173.18,92.51,306.66,135.19,426.82,136.78,58.65.89,135.51-16.7,185.71-42.31l26.25-13.68Z" fill="#000000"/>
      <path class="cls-1" d="M1513.39,4404.43c27.07,18.39,120.5,69.68,126.95,69.44,4.96-.19,22.36-45.73,25.92-67.29,18.22-112.9-73.88-236.01-294.31-394.14-28.9-20.75-57.08-41.13-62.29-44.97-5.43-4.24-10.46-6.89-11.59-6.64-2.8,1.32,1.45,72.73,6.03,104.71,21.32,147.61,88.36,255.89,209.28,338.9Z" fill="#000000"/>
      <path class="cls-1" d="M1555.7,4570.4l28.63-9.12-12.12-16.62c-33.8-45.82-78.64-88.08-127.1-119.55-53.98-34.98-126.15-60.19-208.79-72.78-74.85-11.22-135.38-13.11-244.35-7.53l-55.43,2.9,36.66,28.91c151.08,119.47,273.45,183.41,391.21,204.78,57.45,10.54,136.63,5.92,191.27-10.98Z" fill="#000000"/>
      <path class="cls-1" d="M1151.65,4217.43c4.91.64,31.49-41.22,39.47-61.82,41.4-107.91-23.47-244.16-207.15-436.12-24.08-25.19-47.53-49.88-51.84-54.53-4.45-5.07-8.84-8.5-10-8.45-3.03.83-13.71,71.71-15.86,103.89-9.77,148.57,33.57,266.1,135.1,367.73,22.77,22.57,103.9,88.47,110.29,89.3Z" fill="#000000"/>
      <path class="cls-1" d="M1048.4,4298.24l30.03-4.21-8.44-18.35c-23.67-50.63-58.94-99.59-100-138.57-45.76-43.33-111.42-80.08-190-106.17-71.21-23.45-130.29-35.36-238.52-47.96l-55.06-6.35,30.01,34.49c123.58,142.46,230.51,225.6,341.78,266.15,54.26,19.89,133.02,28.5,190.22,20.96Z" fill="#000000"/>
      <path class="cls-1" d="M766.13,3887.3c4.6,1.67,41.58-33.33,54.83-51.64,68.99-95.99,42.34-242.13-84.85-467.64-16.66-29.58-32.85-58.56-35.8-63.99-2.97-5.87-6.32-10.14-7.46-10.33-3.16.16-32.45,66.73-43.12,97.52-49.12,142.22-38.39,265.58,33.11,385.89,16.09,26.76,77.31,108.03,83.29,110.19Z" fill="#000000"/>
      <path class="cls-1" d="M674.57,3946.11l-3.31-19.61c-9.48-54.21-30.67-109.26-60.16-155.85-32.88-51.82-86.85-101.48-156.21-143.54-62.9-37.92-117.11-62.06-218.86-97.32l-51.78-17.88,19.94,39.88c82.02,164.65,163.7,268.15,260.94,331.2,47.39,30.86,121.59,55.98,179.15,60.83l30.29,2.3Z" fill="#000000"/>
      <path class="cls-1" d="M457.89,3457.6c3.8,2.85,51.03-20.31,69.94-34.1,98.68-72.42,123.6-218.8,80.16-468.3-5.68-32.73-11.11-64.74-12.05-70.72-.8-6.4-2.53-11.38-3.54-11.88-3.07-.71-53.83,54.59-74.59,80.97-95.68,121.86-127.91,242.2-101.26,376.3,6.11,29.88,36.4,124.01,41.35,127.72Z" fill="#000000"/>
      <path class="cls-1" d="M322.49,3477.95l28.03,10.5,3.6-19.57c9.63-54.19,8.41-112.4-3.62-164.82-13.46-58.34-47.73-120.4-99.26-179.46-46.81-53.35-90.09-91.19-174.79-152.67l-43.13-31.23,5.26,43.42c21.4,179.19,63.51,300.09,134.36,386.78,34.48,42.38,96.45,86.63,149.56,107.04Z" fill="#000000"/>
      <path class="cls-1" d="M337.28,2983.72c3.28,3.32,53.86-13.27,74.86-24.38,109.7-58.43,158.83-199.84,157.63-452.34-.14-33.12-.15-65.5-.08-71.53.28-6.44-.59-11.59-1.52-12.22-2.91-1.11-62.37,46.8-87.3,70.11-115,107.72-167,222.41-163.1,358.56,1.04,30.36,15.24,127.48,19.51,131.8Z" fill="#000000"/>
      <path class="cls-1" d="M200,2985.76l25.96,14.12,6.84-18.87c18.59-52.29,27.12-110.01,24-163.45-3.55-59.48-27.05-125.42-68.12-190.69-37.36-59-73.82-102.19-147.28-174.28l-37.42-36.63-2.07,43.64c-8.83,180.04,12.58,305.2,68.12,400.37,27,46.5,80.86,98.53,129.96,125.8Z" fill="#000000"/>
      <path class="cls-1" d="M279.64,2511.96c2.39,3.89,55.81-2.38,79.03-9.1,121.39-35.49,204.11-163.8,265.05-410.36,8.01-32.33,15.96-63.93,17.52-69.8,1.85-6.23,2.27-11.43,1.53-12.22-2.57-1.66-72.35,33.42-102.41,51.27-138.69,82.53-217.64,184.21-247.32,317.81-6.46,29.82-16.49,127.35-13.39,132.41Z" fill="#000000"/>
      <path class="cls-1" d="M145.22,2487.02l21.85,18.87,11.31-17.07c31-47.37,53.52-102,63.62-154.75,11.17-58.72,4.46-127.66-19.54-199.4-21.93-64.88-46.88-114.18-100.8-198.92l-27.49-43.08-12.75,42.16c-52.9,173.91-62.81,300.21-32.03,403.95,14.9,50.66,54.65,111.99,95.84,148.23Z" fill="#000000"/>
      <path class="cls-1" d="M436.37,2053.69c124.82-24.22,221.79-144.31,310.64-384.02,11.67-31.43,23.19-62.14,25.41-67.84,2.56-6.02,3.57-11.16,2.92-12.02-2.36-1.88-75.8,26.64-107.75,41.65-147.41,69.44-237.58,163.38-282.4,293.57-9.84,29.08-30.98,125.18-28.48,130.49,1.93,4.08,55.79,2.73,79.66-1.83Z" fill="#000000"/>
      <path class="cls-1" d="M225.84,2018.45l19.58,20.77,13.21-15.95c36.26-44.29,64.92-96.58,81-148.13,17.83-57.39,19.05-126.59,3.38-200.14-14.39-66.55-33.56-117.86-77.51-207.08l-22.42-45.36-17.51,40.78c-72.53,168.17-96.84,292.91-78.1,398.91,9.02,51.76,41.55,116.39,78.37,156.2Z" fill="#000000"/>
      <path class="cls-1" d="M977.53,1245.82c3.83-5.46,5.95-10.32,5.5-11.27-1.9-2.26-80.18,12.84-114.8,21.96-159.8,42.26-268.86,118.58-341.41,238.38-16.03,26.79-57.88,117.32-56.59,122.97.99,4.34,54.11,12.45,78.51,12.16,127.71-1.88,249.18-102.65,388.97-322.13,18.35-28.78,36.4-56.86,39.82-62.06Z" fill="#000000"/>
      <path class="cls-1" d="M364.68,1582.37l16.45-13.32c45.28-37.08,84.87-83.33,111.97-131.06,30.1-53.15,46.49-120.79,47.29-195.65.51-67.77-7.02-121.45-30.51-216.63l-12.02-48.41-26.13,36.92c-108.07,152.19-159.31,270.25-164.22,377.47-2.52,52.33,15.17,121.41,42.53,166.89l14.63,23.79Z" fill="#000000"/>
      <path class="cls-1" d="M678.43,1216.39c.66,4.39,53.02,15.74,77.39,16.95,127.55,5.97,256.5-87.1,412.85-297.48,20.52-27.58,40.69-54.49,44.51-59.47,4.24-5.21,6.73-9.93,6.36-10.91-1.72-2.37-80.98,7.88-116.22,14.86-162.67,32.35-277.35,101.79-358.96,216.85-18.06,25.74-66.78,113.49-65.93,119.2Z" fill="#000000"/>
      <path class="cls-1" d="M575.87,1174.5l17.44-12.28c48.03-34.21,91.09-77.92,121.8-123.87,34.12-51.18,55.68-117.65,62.24-192.29,5.73-67.58,2.35-121.59-13.75-217.99l-8.26-49.03-28.91,35.23c-119.53,145.2-179.74,259.82-192.9,366.49-6.55,52.05,5.78,122.05,29.58,169.11l12.77,24.63Z" fill="#000000"/>
      <path class="cls-1" d="M842.7,914.22l20.37-7.91c56.2-22.16,110.3-54.64,153.1-92.09,47.58-41.74,87.39-101.11,115.01-171.8,24.81-64.05,36.94-117.05,48.85-213.94l5.99-49.29-38,27.49c-156.99,113.23-247.9,210.39-291.04,310.55-21.17,48.85-29.21,119.35-19.61,170.26l5.32,26.72Z" fill="#000000"/>
      <path class="cls-1" d="M3179.45,4635.25c-9.17,20.2-20.01,67.34-15.84,69.74,5.42,3.13,115.07,1.2,148.85-2.4,151.35-16.83,270.59-79.84,372.74-197.44,22.1-25.49,66.29-85.13,64.62-87.54-.83-.72-6.67-.72-13.76.48-6.67.96-42.53,5.77-79.22,10.58-279.76,36.55-429.02,101-477.39,206.58Z" fill="#000000"/>
      <path class="cls-1" d="M3580.87,4783.06c-78.39-26.54-154.91-37.47-221.29-31.75-59.64,5.2-122.27,21.34-177.41,45.54l-19.88,8.85,19.5,20.82c37.51,39.3,103.15,79.11,158.66,96.03,113.65,34.87,255.43,35.13,453.47.52l48.01-8.33-46.13-27.58c-90.77-54.13-144.03-79.89-214.92-104.1Z" fill="#000000"/>
      <path class="cls-1" d="M3729.81,4680.68c6.29,1.3,108.72-33.7,139.12-47.32,136-61.65,224.26-157.03,275.73-298.58,11.11-30.67,30.05-100.16,27.57-101.92-1.06-.43-6.55,1.34-12.76,4.62-5.91,2.92-37.82,18.3-70.51,33.93-249.32,119.08-365.29,224.9-370.72,338.86-.96,21.78,6.73,69.41,11.57,70.41Z" fill="#000000"/>
      <path class="cls-1" d="M4151.99,4627.82c-83.82-1.24-159.96,11.64-220.24,37.12-54.13,22.95-106.94,57.09-149.62,96.55l-15.34,14.34,26.25,13.68c50.2,25.62,127.07,43.21,185.71,42.32,120.16-1.6,253.64-44.27,426.82-136.78l42.01-22.37-53.87-11.99c-105.94-23.45-165.83-31.56-241.71-32.87Z" fill="#000000"/>
      <path class="cls-1" d="M4240.25,4474.39c6.45.24,99.88-51.04,126.95-69.44,120.92-83.01,187.96-191.29,209.28-338.9,4.58-31.98,8.84-103.39,6.03-104.71-1.13-.24-6.16,2.4-11.59,6.64-5.2,3.85-33.39,24.22-62.29,44.97-220.43,158.13-312.53,281.24-294.31,394.14,3.56,21.57,20.96,67.11,25.92,67.29Z" fill="#000000"/>
      <path class="cls-1" d="M4644.26,4352.85c-82.64,12.6-154.81,37.8-208.79,72.78-48.46,31.48-93.3,73.74-127.1,119.55l-12.12,16.63,28.63,9.12c54.63,16.9,133.81,21.52,191.27,10.98,117.76-21.37,240.13-85.32,391.21-204.78l36.66-28.91-55.42-2.9c-108.97-5.58-169.5-3.69-244.35,7.53Z" fill="#000000"/>
      <path class="cls-1" d="M4958.46,3657.04c-1.16-.05-5.55,3.38-10,8.45-4.31,4.65-27.76,29.34-51.84,54.53-183.68,191.96-248.55,328.22-207.15,436.12,7.98,20.6,34.56,62.46,39.47,61.82,6.38-.83,87.52-66.73,110.28-89.3,101.54-101.63,144.87-219.16,135.1-367.73-2.15-32.18-12.84-103.06-15.86-103.89Z" fill="#000000"/>
      <path class="cls-1" d="M5100.62,4031.47c-78.58,26.09-144.24,62.84-190,106.17-41.06,38.97-76.33,87.94-100,138.57l-8.45,18.35,30.03,4.21c57.2,7.54,135.96-1.07,190.22-20.96,111.26-40.55,218.19-123.69,341.78-266.15l30.01-34.49-55.06,6.35c-108.23,12.6-167.32,24.51-238.52,47.96Z" fill="#000000"/>
      <path class="cls-1" d="M5114.46,3887.83c5.98-2.17,67.2-83.43,83.29-110.19,71.5-120.31,82.24-243.67,33.11-385.89-10.67-30.8-39.96-97.36-43.12-97.52-1.14.2-4.49,4.46-7.46,10.33-2.95,5.43-19.14,34.4-35.8,63.99-127.18,225.51-153.84,371.64-84.84,467.64,13.25,18.31,50.23,53.31,54.83,51.64Z" fill="#000000"/>
      <path class="cls-1" d="M5425.69,3627.64c-69.36,42.06-123.32,91.72-156.21,143.54-29.48,46.59-50.67,101.64-60.16,155.85l-3.31,19.61,30.29-2.3c57.56-4.85,131.76-29.96,179.15-60.83,97.24-63.05,178.91-166.55,260.94-331.2l19.94-39.88-51.78,17.88c-101.75,35.26-155.96,59.4-218.86,97.32Z" fill="#000000"/>
      <path class="cls-1" d="M5352.77,3424.03c18.91,13.79,66.14,36.94,69.94,34.1,4.94-3.7,35.24-97.83,41.35-127.72,26.65-134.11-5.58-254.45-101.26-376.3-20.75-26.38-71.52-81.68-74.59-80.97-1.02.5-2.74,5.48-3.54,11.88-.94,5.98-6.37,37.99-12.05,70.72-43.44,249.5-18.52,395.88,80.16,468.3Z" fill="#000000"/>
      <path class="cls-1" d="M5629.35,3125.13c-51.53,59.06-85.8,121.12-99.26,179.46-12.03,52.42-13.25,110.63-3.62,164.82l3.6,19.57,28.03-10.5c53.11-20.41,115.08-64.67,149.56-107.04,70.84-86.68,112.95-207.58,134.36-386.78l5.26-43.42-43.13,31.23c-84.7,61.48-127.98,99.32-174.79,152.67Z" fill="#000000"/>
      <path class="cls-1" d="M5543.31,2984.24c4.27-4.32,18.47-101.44,19.51-131.8,3.9-136.16-48.1-250.84-163.1-358.56-24.93-23.31-84.39-71.22-87.3-70.11-.92.63-1.79,5.78-1.52,12.22.07,6.03.06,38.41-.08,71.53-1.19,252.5,47.94,393.9,157.63,452.34,21,11.11,71.58,27.7,74.86,24.38Z" fill="#000000"/>
      <path class="cls-1" d="M5691.91,2627.4c-41.07,65.27-64.57,131.21-68.12,190.69-3.12,53.44,5.42,111.16,24,163.45l6.84,18.87,25.96-14.12c49.1-27.27,102.96-79.3,129.96-125.8,55.54-95.16,76.95-220.33,68.12-400.37l-2.07-43.64-37.42,36.63c-73.46,72.09-109.92,115.29-147.28,174.28Z" fill="#000000"/>
      <path class="cls-1" d="M5600.95,2512.48c3.1-5.05-6.93-102.59-13.39-132.41-29.69-133.6-108.63-235.28-247.32-317.81-30.06-17.85-99.85-52.93-102.42-51.27-.75.79-.33,5.99,1.53,12.22,1.56,5.87,9.51,37.46,17.52,69.8,60.95,246.56,143.66,374.88,265.05,410.36,23.22,6.72,76.65,12.98,79.03,9.1Z" fill="#000000"/>
      <path class="cls-1" d="M5638.59,2334.6c10.1,52.75,32.63,107.38,63.63,154.75l11.31,17.07,21.85-18.87c41.19-36.23,80.94-97.56,95.84-148.23,30.77-103.74,20.87-230.04-32.03-403.95l-12.75-42.16-27.49,43.08c-53.93,84.74-78.87,134.04-100.8,198.92-24.01,71.73-30.71,140.67-19.54,199.4Z" fill="#000000"/>
      <path class="cls-1" d="M5213.01,1631.99c-31.94-15.01-105.38-43.53-107.75-41.65-.65.86.36,5.99,2.92,12.02,2.22,5.7,13.74,36.4,25.41,67.84,88.85,239.71,185.82,359.8,310.63,384.02,23.87,4.56,77.73,5.92,79.66,1.83,2.51-5.31-18.64-101.42-28.48-130.49-44.82-130.19-134.99-224.13-282.4-293.57Z" fill="#000000"/>
      <path class="cls-1" d="M5540.97,1875.66c16.09,51.55,44.75,103.84,81,148.13l13.21,15.95,19.58-20.77c36.83-39.81,69.35-104.44,78.37-156.2,18.74-106-5.57-230.74-78.1-398.91l-17.51-40.78-22.42,45.36c-43.95,89.22-63.12,140.53-77.51,207.08-15.67,73.55-14.45,142.74,3.38,200.13Z" fill="#000000"/>
      <path class="cls-1" d="M5331.86,1630.54c24.41.29,77.52-7.82,78.51-12.16,1.29-5.65-40.56-96.18-56.59-122.97-72.55-119.8-181.61-196.12-341.41-238.38-34.62-9.12-112.9-24.22-114.8-21.96-.45.96,1.67,5.81,5.5,11.27,3.43,5.2,21.47,33.29,39.82,62.06,139.78,219.48,261.25,320.25,388.97,322.13Z" fill="#000000"/>
      <path class="cls-1" d="M5387.49,1438.51c27.1,47.73,66.69,93.98,111.97,131.06l16.45,13.32,14.63-23.79c27.37-45.48,45.06-114.56,42.53-166.89-4.91-107.23-56.16-225.28-164.22-377.47l-26.13-36.92-12.01,48.41c-23.49,95.19-31.02,148.86-30.51,216.63.79,74.87,17.19,142.5,47.29,195.65Z" fill="#000000"/>
      <path class="cls-1" d="M4711.92,936.39c156.35,210.38,285.3,303.45,412.85,297.48,24.37-1.21,76.73-12.56,77.39-16.95.86-5.71-47.87-93.46-65.92-119.2-81.61-115.07-196.28-184.5-358.96-216.85-35.24-6.98-114.5-17.23-116.22-14.86-.37.98,2.12,5.7,6.36,10.91,3.82,4.98,23.99,31.89,44.51,59.47Z" fill="#000000"/>
      <path class="cls-1" d="M5165.49,1038.88c30.71,45.95,73.77,89.66,121.8,123.87l17.44,12.28,12.77-24.63c23.8-47.06,36.13-117.06,29.58-169.11-13.16-106.67-73.37-221.3-192.9-366.49l-28.91-35.23-8.26,49.03c-16.1,96.4-19.48,150.41-13.75,218,6.55,74.64,28.12,141.11,62.24,192.29Z" fill="#000000"/>
      <path class="cls-1" d="M4749.41,642.95c27.62,70.69,67.43,130.06,115.01,171.8,42.8,37.45,96.9,69.93,153.1,92.09l20.37,7.91,5.32-26.73c9.6-50.92,1.56-121.41-19.61-170.26-43.14-100.16-134.05-197.32-291.04-310.55l-38-27.49,5.99,49.29c11.91,96.89,24.05,149.88,48.85,213.94Z" fill="#000000"/>
      <g>
        <path class="cls-1" d="M1716.65,122.56c2.81,1.87,4.68,2.81,7.48,2.81,3.74,0,7.48-2.81,8.42-7.48,4.68-16.84,28.07-27.13,63.62-31.81,15.9-2.81,34.61-3.74,54.26-3.74,27.13,0,57.07,2.81,87.94,5.61-.93.94-2.81,2.81-2.81,4.68-26.2,58.94-127.23,381.7-127.23,458.41l.94,10.29c4.68,17.78,32.74,24.32,56.13,24.32h4.68c5.61,0,9.35-4.68,9.35-9.35.94-81.39,100.1-383.57,134.72-463.09l.94-9.35v-3.74c2.81.94,11.23,2.81,50.52,10.29,1.05.22,2.07.44,3.12.66-33.46,88.14-116.33,326.57-116.33,393.2,2.81,29,21.52,34.61,52.39,34.61,11.23,0,18.71,0,18.71-9.35,0-19.65,9.35-56.13,21.52-99.17,16.84-29.94,73.91-126.3,125.36-174.01,2.81-2.81,6.55-6.55,9.36-6.55s3.74,1.87,3.74,6.55c0,10.29-54.26,159.98-56.13,229.21,0,45.84,24.32,54.26,57.07,54.26l26.19-.94c27.48-1.45,46.04-25.87,83.29-105.58.66,58.01,29.88,104.67,108.49,107.45h5.62c43.97,0,77.65-19.65,104.78-56.13,1.87-.94,2.81-3.74,2.81-6.55l-1.87-5.61c-1.87-1.87-3.74-2.81-6.55-2.81s-5.61.93-8.42,3.74c-19.64,19.65-45.84,46.78-76.71,46.78l-10.29-.94c-29.94-6.55-41.16-43.04-41.16-77.65,0-13.1.94-25.26,3.74-36.49,7.48,6.55,16.84,9.36,26.2,9.36,50.52,0,118.81-81.39,120.68-147.82v-1.87c0-35.55-29-54.26-64.55-55.2h-2.81c-69.23,0-118.81,72.04-142.2,132.85-3.13,8.34-5.85,16.76-8.21,25.16-50.68,114.26-69.39,150.85-93.76,152.59-3.74,0-5.61-5.61-5.61-16.84,0-54.26,44.9-179.62,58-244.17l.94-11.23c0-25.26-19.65-39.29-43.04-39.29-40.23,0-76.71,47.71-106.65,84.2-16.84,21.52-32.74,44.91-45.84,65.49,29.72-90.76,65.63-189.06,82.3-232.23,10.39,1.28,20.17,2.09,29.04,2.09,14.97,0,27.13-1.87,36.49-6.55,11.23-5.61,21.52-21.52,26.2-39.29,1.87-6.55,2.81-13.1,2.81-20.58,0-9.36-1.87-18.71-5.61-27.13-1.87-4.68-5.61-6.55-8.42-6.55s-4.68.94-6.55,2.81c-8.42,9.35-26.2,13.1-49.58,13.1-39.29,0-94.49-10.29-152.49-20.58-60.81-11.23-124.43-22.45-176.82-23.39h-16.84c-42.1,0-87.94,4.68-112.26,37.42-3.74,4.68-8.42,29.94-8.42,51.45,0,14.97,2.81,29,9.35,33.68ZM2415.48,309.66c9.36-13.1,40.23-53.33,61.75-53.33,2.81,0,4.68.94,7.48,1.87,2.81,1.87,3.74,5.61,3.74,10.29,0,29.94-52.39,112.26-92.62,112.26-5.62,0-9.36-.93-14.03-3.74,7.48-21.52,19.65-45.84,33.68-67.36Z" fill="#000000"/>
        <path class="cls-1" d="M2778.45,225.46l7.48,1.87c4.68,0,8.42-2.81,9.35-8.42,24.32-118.81,178.69-176.82,295.63-176.82,14.03,0,27.13.94,39.29,2.81,56.13,7.48,75.78,38.36,75.78,74.84,0,42.1-25.26,91.68-50.52,126.3-34.61,47.71-79.52,85.13-114.13,85.13l-12.16-1.87c24.32-74.84,49.58-154.36,77.65-227.34l.94-3.74c0-14.97-31.81-29-55.2-29-11.23,0-20.58,2.81-23.39,10.29-14.97,34.61-65.49,185.24-101.04,308.73-19.65,71.1-34.61,132.85-34.61,161.85,0,3.74,0,7.48.94,10.29,4.68,20.58,29.94,24.32,51.45,24.32h9.35c5.62,0,9.36-4.68,9.36-9.35,0-33.68,32.74-145.01,54.26-212.37,14.97,12.16,27.13,17.78,45.84,17.78h8.42c73.91-6.55,141.27-66.42,175.88-137.52,17.77-36.49,26.19-69.23,26.19-97.29,0-94.49-89.81-145.01-214.23-145.94h-11.23c-109.46,0-214.24,26.2-300.31,100.1-9.36,7.48-13.1,21.52-13.1,36.49,0,34.61,20.58,79.52,42.1,88.88Z" fill="#000000"/>
        <path class="cls-1" d="M3323.86,538.87c64.55,0,110.39-74.84,130.98-133.78h7.48c23.56,0,47.85-8.17,67.29-23.08-7.97,35.32-13.04,68.04-13.04,94.18,0,15.91,1.87,29.94,6.55,40.23,9.35,19.64,30.87,22.45,53.32,22.45h13.1c19.64-.94,40.23-25.26,50.52-40.23,14.56-19.27,28.9-43.44,42.09-68.11-2.94,17.34-4.68,33.53-4.68,47.53,0,15.9,1.87,29,7.49,38.36,10.29,19.64,34.61,22.45,58,22.45h12.16c26.2-.94,56.13-42.1,78.58-83.26-11.23,42.1-16.84,62.68-29,95.42-85.14,5.61-133.78,25.26-143.14,84.2l-.94,14.97c0,35.55,21.52,60.81,61.75,63.62h6.55c78.58,0,117.88-78.59,143.14-143.14,37.42-14.97,65.49-40.23,90.75-76.72,5.17-7.46,10.21-15.46,15.21-23.94,2.5,37.78,28.71,70.72,81.15,70.72,68.29,0,101.97-59.87,101.97-121.62,0-40.23-11.23-79.52-11.23-118.81,0-25.26,4.68-50.52,21.52-75.78.94-1.87,1.87-3.74,1.87-5.62,0-4.68-3.74-9.35-9.35-9.35h-70.16c-16.84,0-65.49,115.07-73.91,131.91-.54,1.07-.75,2.13-.85,3.02-26.28,58.01-47.42,104.42-72.11,139.18-18.71,28.07-39.29,48.65-65.49,62.68,21.52-58.94,43.04-129.11,62.68-191.79,13.1-44.91,25.26-85.13,36.49-115.07l.94-3.74c0-14.97-29-27.13-51.46-27.13-12.16,0-22.45,3.74-25.26,12.16-12.16,33.68-23.39,67.36-32.74,100.1-24.32,68.3-47.71,116.01-66.42,146.88-24.32,39.29-42.1,51.45-52.39,52.39-4.68,0-7.48-5.61-7.48-14.97,0-55.2,68.29-243.24,76.71-263.82l.94-3.74c0-14.97-29-29-51.46-29-11.23,0-19.65,3.74-23.39,11.23-11.1,23.21-30.9,74.44-46.79,128.61-19.02,40.04-48.61,102.25-75.75,139.89-5.62,7.48-23.39,31.81-35.55,31.81h-1.87c-1.87,0-1.87-3.74-1.87-9.35l.94-18.71c10.29-96.36,108.52-353.63,119.75-383.57l.94-2.81c0-13.1-30.87-29-55.2-29-11.23,0-20.58,3.74-25.26,11.23-10.37,23.99-59.83,146.36-89.22,257.22-16.91,27.22-48.34,41.21-77.3,41.21,6.55-21.52,12.16-50.52,12.16-77.65,0-43.97-13.1-86.07-58-97.29-8.42-1.87-15.9-2.81-23.39-2.81-87.01,0-151.56,126.3-151.56,222.66,0,59.87,24.32,107.59,83.26,107.59ZM3708.35,672.65c-20.58,0-27.13-12.16-27.13-27.13,0-5.61.94-12.16,2.81-18.71,9.35-32.74,36.49-51.45,114.13-56.13-21.52,52.39-54.26,101.97-89.81,101.97ZM4037.66,348.02c.14-.28.23-.56.33-.84l32.41-69.32c-.94,6.55-.94,13.1-.94,19.64,0,41.16,11.23,93.56,11.23,138.46,0,26.2-3.74,49.58-16.84,66.42-4.68,5.61-11.23,10.29-16.84,10.29-1.87,0-3.74-.93-5.62-1.87-2.8-1.87-4.67-7.48-4.67-14.03,0-19.65,13.1-53.33,27.13-66.42,2.81-1.87,3.74-3.74,3.74-6.55,0-12.16-27.13-31.81-48.65-31.81-.4,0-.8.04-1.19.06,6.42-13.89,13.01-28.56,19.91-44.03ZM3402.45,265.69h4.68c12.16,0,17.77,9.35,20.58,21.52-17.78,4.68-34.61,31.81-34.61,58.94,0,15.91,5.61,32.74,20.58,43.97-10.29,29-46.78,119.75-83.26,119.75h-2.81c-14.03-1.87-19.64-18.71-19.64-42.1,0-67.36,49.58-194.59,94.49-202.08Z" fill="#000000"/>
      </g>
      <g>
        <path class="cls-1" d="M3309.18,1015.85l8.9,56.26h43.95l-57.02-296.83h-46.6l-57.4,296.07v.76h43.76l8.9-56.26h55.5ZM3281.33,844.05l21.6,133.73h-43.38l21.78-133.73Z" fill="#000000"/>
        <polygon class="cls-1" points="3511.48 1002.97 3490.84 880.79 3457.88 880.79 3437.23 1002.97 3416.39 880.79 3374.91 880.79 3416.01 1072.49 3453.52 1072.49 3474.17 966.6 3494.82 1072.49 3532.7 1072.49 3573.8 880.79 3532.32 880.79 3511.48 1002.97" fill="#000000"/>
        <path class="cls-1" d="M3618.13,1072.87c6.69,0,16.48-.95,29.36-2.84,9.85-1.52,19.7-3.03,29.55-4.55v6.63h41.48v-167.64c0-15.78-8.02-23.68-24.05-23.68h-73.31c-16.29,0-24.44,7.9-24.44,23.68v35.8h39.21v-27.28h41.48v43.95h-58.53c-16.29,0-24.44,7.89-24.44,23.68v68.95c0,15.53,7.89,23.3,23.68,23.3ZM3635.93,986.3h41.48v51.33l-41.48,1.51v-52.85Z" fill="#000000"/>
        <path class="cls-1" d="M3792.97,917.73l34.29-.76v43.76h43v-57.4c0-15.53-7.89-23.3-23.67-23.3-7.2,0-16.17.95-26.9,2.84-8.84,1.64-17.74,3.29-26.71,4.92v-7.01h-43.38v191.32h43.38v-154.38Z" fill="#000000"/>
        <path class="cls-1" d="M3929.17,1073.25c3.53,0,19.95-2.58,49.25-7.77v6.63h43.19v-296.45h-43.19v105.13c-2.9,0-7.83-.12-14.77-.38-6.95-.25-12.25-.38-15.91-.38-16.42,0-28.67,2.27-36.75,6.82-11.11,6.06-16.67,16.86-16.67,32.39v118.39c0,10.99,3.09,19.67,9.28,26.04,6.19,6.38,14.71,9.57,25.57,9.57ZM3937.31,931.37c0-9.6,4.8-14.39,14.4-14.39h26.71v117.82c-16.17,1.39-25.32,2.08-27.46,2.08-9.09,0-13.64-4.67-13.64-14.02v-91.49Z" fill="#000000"/>
        <path class="cls-1" d="M4076.35,1072.11h72.93c16.04,0,24.06-7.89,24.06-23.68v-47.35c0-9.09-4.42-16.16-13.26-21.22l-66.3-38.83v-27.66h38.08v29.55h41.1v-38.45c0-15.78-8.02-23.68-24.05-23.68h-72.17c-16.29,0-24.44,7.9-24.44,23.68v44.7c0,8.71,4.36,15.66,13.07,20.84l66.49,39.21v30.31h-38.08v-32.2h-41.48v41.1c0,15.79,8.02,23.68,24.06,23.68Z" fill="#000000"/>
        <g>
          <path class="cls-1" d="M1752.05,1073.27h-44.79v-299.55h44.79v299.55Z" fill="#000000"/>
          <path class="cls-1" d="M1999.73,1073.27h-43.45v-156.76l-41.15.77v156h-43.64v-156.76l-41.15.77v156h-43.83v-193.32h43.83v7.08c10.21-1.66,20.35-3.32,30.43-4.98,12.38-1.91,22.65-2.87,30.82-2.87,10.08,0,16.59,2.87,19.52,8.61,10.72-1.66,21.44-3.38,32.16-5.17,14.16-2.3,25.01-3.45,32.54-3.45,15.95,0,23.93,7.85,23.93,23.54v170.54Z" fill="#000000"/>
          <path class="cls-1" d="M2244.34,1073.27h-43.45v-156.76l-41.15.77v156h-43.64v-156.76l-41.15.77v156h-43.83v-193.32h43.83v7.08c10.21-1.66,20.35-3.32,30.43-4.98,12.38-1.91,22.65-2.87,30.82-2.87,10.08,0,16.59,2.87,19.52,8.61,10.72-1.66,21.44-3.38,32.16-5.17,14.16-2.3,25.01-3.45,32.54-3.45,15.95,0,23.93,7.85,23.93,23.54v170.54Z" fill="#000000"/>
          <path class="cls-1" d="M2400.71,1049.35c0,15.95-8.23,23.93-24.69,23.93h-75.61c-16.46,0-24.69-7.97-24.69-23.93v-145.47c0-15.95,8.23-23.93,24.69-23.93h75.61c16.46,0,24.69,7.98,24.69,23.93v71.01l-12.06,12.06h-71.01v54.17h41.15v-32.16h41.92v40.39ZM2358.8,958.43v-46.32h-41.15v46.32h41.15Z" fill="#000000"/>
          <path class="cls-1" d="M2554.42,960.73h-43.45v-44.21l-34.65.77v156h-43.83v-193.32h43.83v7.08c9.06-1.66,18.06-3.32,26.99-4.98,10.84-1.91,19.91-2.87,27.18-2.87,15.95,0,23.92,7.85,23.92,23.54v58Z" fill="#000000"/>
          <path class="cls-1" d="M2700.65,1049.35c0,15.95-8.11,23.93-24.31,23.93h-73.69c-16.21,0-24.31-7.97-24.31-23.93v-41.53h41.92v32.54h38.47v-30.62l-67.19-39.62c-8.8-5.23-13.2-12.25-13.2-21.05v-45.17c0-15.95,8.23-23.93,24.69-23.93h72.93c16.2,0,24.31,7.98,24.31,23.93v38.86h-41.53v-29.86h-38.47v27.95l66.99,39.24c8.93,5.11,13.4,12.25,13.4,21.44v47.85Z" fill="#000000"/>
          <path class="cls-1" d="M2775.87,852.2h-43.83v-45.17h43.83v45.17ZM2775.49,1073.27h-43.07v-193.32h43.07v193.32Z" fill="#000000"/>
          <path class="cls-1" d="M2938.95,879.95l-49.38,193.7h-41.92l-49.39-193.7h44.98l25.45,127.09,25.46-127.09h44.79Z" fill="#000000"/>
          <path class="cls-1" d="M3085.57,1049.35c0,15.95-8.23,23.93-24.69,23.93h-75.61c-16.46,0-24.69-7.97-24.69-23.93v-145.47c0-15.95,8.23-23.93,24.69-23.93h75.61c16.46,0,24.69,7.98,24.69,23.93v71.01l-12.06,12.06h-71.01v54.17h41.15v-32.16h41.92v40.39ZM3043.65,958.43v-46.32h-41.15v46.32h41.15Z" fill="#000000"/>
        </g>
      </g>
    </g>
    <g>
      <path class="cls-1" d="M1241.55,1985c0,14.32-4.93,30.17-14.8,47.58l-124.76,217.9h138.98v59.48h-220.22v-42.07l153.77-270.41v-83.85h-82.69v84.43h-66.44v-100.97c0-27.46,13.83-41.2,41.49-41.2h133.17c27.66,0,41.49,13.74,41.49,41.2v87.91Z" fill="#000000"/>
      <path class="cls-1" d="M1513.12,2268.46c0,27.66-13.64,41.49-40.91,41.49h-141.59c-26.89,0-40.33-13.83-40.33-41.49v-370.8c0-27.85,13.73-41.78,41.2-41.78h140.72c27.27,0,40.91,13.93,40.91,41.78v370.8ZM1446.68,2251.63v-337.43h-89.65v337.43h89.65Z" fill="#000000"/>
      <path class="cls-1" d="M1780.92,1985c0,14.32-4.93,30.17-14.8,47.58l-124.76,217.9h138.98v59.48h-220.22v-42.07l153.77-270.41v-83.85h-82.69v84.43h-66.44v-100.97c0-27.46,13.83-41.2,41.49-41.2h133.17c27.66,0,41.49,13.74,41.49,41.2v87.91Z" fill="#000000"/>
      <path class="cls-1" d="M2046.69,2268.46c0,27.66-13.74,41.49-41.2,41.49h-136.08c-26.89,0-40.33-13.83-40.33-41.49v-104.74h66.73v87.91h84.14v-174.66h-150.87l7.25-221.09h207.16v59.48h-144.2l-4.35,103.29h110.54c27.46,0,41.2,13.74,41.2,41.2v208.61Z" fill="#000000"/>
      <path class="cls-1" d="M2439.54,2268.46c0,27.66-13.74,41.49-41.2,41.49h-136.66c-27.27,0-40.91-13.83-40.91-41.49v-108.22h67.89v92.55h82.98v-89.07l-136.08-128.82c-9.86-9.47-14.8-21.57-14.8-36.27v-100.97c0-27.85,13.64-41.78,40.91-41.78h136.66c27.46,0,41.2,13.74,41.2,41.2v101.55h-67.89v-85.59h-82.98v82.11l136.08,128.24c9.86,9.28,14.8,21.57,14.8,36.85v108.22Z" fill="#000000"/>
      <path class="cls-1" d="M2681.81,2309.95h-188.3v-454.07h186.56v60.06h-118.67v132.59h102.13v58.9h-102.13v142.46h120.41v60.06Z" fill="#000000"/>
      <path class="cls-1" d="M3002.7,2309.95h-65.28v-223.99c0-11.8,1.35-28.24,4.06-49.32l-58.61,231.82h-34.53l-58.9-231.82c2.71,21.47,4.06,37.91,4.06,49.32v223.99h-65.28v-454.07h64.12l71.37,250.97c.77,2.71,1.35,9.57,1.74,20.6,0-4.83.58-11.7,1.74-20.6l71.37-250.97h64.12v454.07Z" fill="#000000"/>
      <path class="cls-1" d="M3126.01,2309.95h-67.89v-454.07h67.89v454.07Z" fill="#000000"/>
      <path class="cls-1" d="M3367.12,1915.94h-117.51v134.34h100.39v58.9h-100.39v200.78h-67.89v-454.07h185.4v60.06Z" fill="#000000"/>
      <path class="cls-1" d="M3474.76,2309.95h-67.89v-454.07h67.89v454.07Z" fill="#000000"/>
      <path class="cls-1" d="M3760.55,2309.95h-59.48l-108.8-285.79c2.9,13.93,4.35,24.86,4.35,32.79v253h-66.15v-454.07h59.48l108.8,279.99c-2.9-13.93-4.35-24.85-4.35-32.79v-247.2h66.15v454.07Z" fill="#000000"/>
      <path class="cls-1" d="M4045.18,2309.95h-67.31l-13.64-86.17h-85.01l-13.64,86.17h-67.02v-1.16l87.91-453.49h71.37l87.33,454.65ZM3954.65,2165.46l-33.08-204.84-33.37,204.84h66.44Z" fill="#000000"/>
      <path class="cls-1" d="M4261.62,2309.95h-178.44v-454.07h67.89v393.43h110.54v60.64Z" fill="#000000"/>
      <path class="cls-1" d="M4371.01,2309.95h-67.89v-454.07h67.89v454.07Z" fill="#000000"/>
      <path class="cls-1" d="M4644.32,2268.46c0,27.66-13.74,41.49-41.2,41.49h-136.66c-27.27,0-40.91-13.83-40.91-41.49v-108.22h67.89v92.55h82.98v-89.07l-136.08-128.82c-9.86-9.47-14.8-21.57-14.8-36.27v-100.97c0-27.85,13.64-41.78,40.91-41.78h136.66c27.46,0,41.2,13.74,41.2,41.2v101.55h-67.89v-85.59h-82.98v82.11l136.08,128.24c9.86,9.28,14.8,21.57,14.8,36.85v108.22Z" fill="#000000"/>
      <path class="cls-1" d="M4895.58,1915.94h-74.86v394.01h-67.6v-394.01h-74.86v-60.06h217.32v60.06Z" fill="#000000"/>
    </g>
  </g>
  <g id="Categories">
    <g id="SPLOTY">
      <path class="cls-1" d="M1233.5,3212.31c0,26.68-13.76,40.01-41.27,40.01h-136.89c-27.32,0-40.98-13.34-40.98-40.01v-104.37h68.01v89.26h83.12v-85.9l-136.31-124.24c-9.88-9.14-14.82-20.8-14.82-34.98v-97.38c0-26.86,13.66-40.29,40.98-40.29h136.89c27.51,0,41.27,13.24,41.27,39.73v97.93h-68.01v-82.54h-83.12v79.19l136.31,123.68c9.88,8.95,14.82,20.8,14.82,35.54v104.37Z" fill="#000000"/>
      <path class="cls-1" d="M1507.28,3052.81c0,27.24-13.85,40.85-41.56,40.85h-110.15v158.65h-68.01v-437.91h178.16c27.71,0,41.56,13.43,41.56,40.29v198.11ZM1438.69,3037.42v-166.77h-83.12v166.77h83.12Z" fill="#000000"/>
      <path class="cls-1" d="M1734.28,3252.32h-178.74v-437.91h68.01v379.43h110.73v58.48Z" fill="#000000"/>
      <path class="cls-1" d="M2005.15,3252.32h-67.43l-13.66-83.1h-85.16l-13.66,83.1h-67.14v-1.12l88.06-437.35h71.5l87.48,438.47ZM1914.47,3112.97l-33.13-197.55-33.42,197.55h66.56Z" fill="#000000"/>
      <path class="cls-1" d="M2240.86,2872.33h-74.99v379.99h-67.72v-379.99h-74.99v-57.92h217.69v57.92Z" fill="#000000"/>
      <path class="cls-1" d="M2627.42,3212.31c0,26.68-13.76,40.01-41.27,40.01h-147.65c-26.93,0-40.4-13.34-40.4-40.01v-357.6c0-26.86,13.47-40.29,40.4-40.29h147.65c27.51,0,41.27,13.43,41.27,40.29v357.6ZM2559.41,3196.08v-325.42h-93.3v325.42h93.3Z" fill="#000000"/>
      <path class="cls-1" d="M2867.78,2872.33h-117.71v129.55h100.56v56.8h-100.56v193.63h-68.01v-437.91h185.72v57.92Z" fill="#000000"/>
      <path class="cls-1" d="M3226.72,2872.33h-74.99v379.99h-67.72v-379.99h-74.99v-57.92h217.69v57.92Z" fill="#000000"/>
      <path class="cls-1" d="M3490.04,3252.32h-68.59v-196.43h-92.13v196.43h-68.01v-437.91h68.01v180.48h92.13v-180.48h68.59v437.91Z" fill="#000000"/>
      <path class="cls-1" d="M3732.73,3252.32h-188.63v-437.91h186.88v57.92h-118.87v127.87h102.31v56.8h-102.31v137.39h120.62v57.92Z" fill="#000000"/>
      <path class="cls-1" d="M4130.61,2816.93l-60.16,183c-7.36,18.09-17.34,48.59-29.94,91.5v160.89h-68.3v-160.89c-3.1-14.55-7.56-29.94-13.37-46.17-10.27-27.79-15.79-42.9-16.57-45.33l-59.87-183c-.19-.19-.19-1.03,0-2.52h70.04l54.35,190.27,54.06-190.27h69.75v2.52Z" fill="#000000"/>
      <path class="cls-1" d="M4354.12,3252.32h-188.63v-437.91h186.88v57.92h-118.87v127.87h102.31v56.8h-102.31v137.39h120.62v57.92Z" fill="#000000"/>
      <path class="cls-1" d="M4631.1,3252.32h-67.43l-13.66-83.1h-85.16l-13.66,83.1h-67.14v-1.12l88.06-437.35h71.5l87.48,438.47ZM4540.42,3112.97l-33.13-197.55-33.42,197.55h66.56Z" fill="#000000"/>
      <path class="cls-1" d="M4901.98,3252.32h-70.92l-74.99-203.42v-39.45h66.85v-138.79h-85.74v381.67h-68.01v-437.91h180.49c27.32,0,40.98,13.43,40.98,40.29v159.21c0,18.47-6.49,30.41-19.47,35.82-6.98,2.8-21.7,4.2-44.18,4.2l74.99,198.39Z" fill="#000000"/>
    </g>
  </g>
</svg>