<?xml version="1.0" encoding="UTF-8"?><svg xmlns="http://www.w3.org/2000/svg" xmlns:xlink="http://www.w3.org/1999/xlink" viewBox="0 0 1500 1500"><defs><style>.cls-1{filter:url(#drop-shadow-2);}.cls-2{fill:#D4AF37;}.cls-3{filter:url(#drop-shadow-1);}.cls-4{filter:url(#drop-shadow-3);}</style><filter id="drop-shadow-1" x="91.83" y="187.92" width="1316.33" height="1107.77" filterUnits="userSpaceOnUse"><feOffset dx="7" dy="7"/><feGaussianBlur result="blur" stdDeviation="5"/><feFlood flood-color="#000" flood-opacity=".75"/><feComposite in2="blur" operator="in"/><feComposite in="SourceGraphic"/></filter><filter id="drop-shadow-2" x="474.29" y="488.64" width="551.54" height="85.46" filterUnits="userSpaceOnUse"><feOffset dx="7" dy="7"/><feGaussianBlur result="blur-2" stdDeviation="5"/><feFlood flood-color="#000" flood-opacity=".75"/><feComposite in2="blur-2" operator="in"/><feComposite in="SourceGraphic"/></filter><filter id="drop-shadow-3" x="436.5" y="713.27" width="627" height="73.45" filterUnits="userSpaceOnUse"><feOffset dx="7" dy="7"/><feGaussianBlur result="blur-3" stdDeviation="5"/><feFlood flood-color="#000" flood-opacity=".75"/><feComposite in2="blur-3" operator="in"/><feComposite in="SourceGraphic"/></filter></defs><g id="Logo"><g id="Laurel" class="cls-3"><path class="cls-2" d="M755.49,1234.85c-5.11-1.09-7.05-1-12.87.55-14.3,3.74-21.75,18.33-15.73,30.46,8.78,17.88,36.67,18.15,45.86.46,6.74-12.86-1.63-28.18-17.26-31.47Z"/><path class="cls-2" d="M666.7,1240.44c7.56.81,32.1,1.24,33.32.54.93-.54-1.49-11.09-3.55-15.61-10.83-23.63-44.24-38.06-106.86-46.24-8.21-1.08-16.24-2.15-17.73-2.37-1.59-.27-2.89-.27-3.08-.11-.37.54,9.52,13.89,14.47,19.59,22.87,26.32,49.56,40.43,83.44,44.2Z"/><path class="cls-2" d="M656.15,1251.35c-14.86-1.28-31.99,1.17-49.54,7.11-15.87,5.42-27.79,11.18-48.11,23.3l-10.33,6.17,10.75,1.86c44.33,7.75,76.07,7.69,101.51-.12,12.43-3.79,27.12-12.7,35.51-21.5l4.37-4.66-4.45-1.98c-12.34-5.42-26.36-9.03-39.71-10.19Z"/><path class="cls-2" d="M492.88,1143.93c-7.32-3.5-14.46-6.94-15.78-7.6-1.39-.73-2.62-1.13-2.86-1.03-.56.39,3.68,15.95,6.17,22.81,11.52,31.69,31.28,53.04,61.72,66.84,6.81,3.05,29.73,10.88,31.14,10.59,1.08-.22,2.8-10.88,2.59-15.76-1.22-25.51-27.17-49.2-82.98-75.85Z"/><path class="cls-2" d="M565,1256.84l-3.43-3.21c-9.55-8.83-21.37-16.48-33.49-21.61-13.49-5.7-30.54-8.59-49.3-8.31-16.98.29-30.39,2.11-54.1,7.36l-12.06,2.68,9.4,5.01c38.76,20.71,68.64,30.26,95.54,30.62,13.13.2,30.33-3.74,41.57-9.47l5.88-3.06Z"/><path class="cls-2" d="M430.6,1173.82c6.06,4.12,26.97,15.6,28.42,15.54,1.11-.04,5.01-10.24,5.8-15.06,4.08-25.27-16.54-52.83-65.88-88.23-6.47-4.65-12.78-9.21-13.94-10.07-1.22-.95-2.34-1.54-2.59-1.49-.63.3.32,16.28,1.35,23.44,4.77,33.04,19.78,57.28,46.85,75.86Z"/><path class="cls-2" d="M440.07,1210.97l6.41-2.04-2.71-3.72c-7.57-10.26-17.6-19.72-28.45-26.76-12.08-7.83-28.24-13.47-46.74-16.29-16.75-2.51-30.3-2.94-54.7-1.69l-12.41.65,8.21,6.47c33.82,26.74,61.21,41.05,87.57,45.84,12.86,2.36,30.58,1.33,42.81-2.46Z"/><path class="cls-2" d="M349.62,1131.96c1.1.14,7.05-9.23,8.84-13.84,9.27-24.15-5.25-54.65-46.37-97.62-5.39-5.64-10.64-11.17-11.6-12.21-1-1.14-1.98-1.9-2.24-1.89-.68.19-3.07,16.05-3.55,23.25-2.19,33.26,7.51,59.56,30.24,82.31,5.1,5.05,23.26,19.8,24.69,19.99Z"/><path class="cls-2" d="M326.51,1150.05l6.72-.94-1.89-4.11c-5.3-11.33-13.19-22.29-22.38-31.02-10.24-9.7-24.94-17.93-42.53-23.77-15.94-5.25-29.17-7.91-53.39-10.74l-12.33-1.42,6.72,7.72c27.66,31.89,51.6,50.5,76.5,59.58,12.15,4.45,29.78,6.38,42.58,4.69Z"/><path class="cls-2" d="M263.33,1058.07c1.03.37,9.31-7.46,12.27-11.56,15.44-21.49,9.48-54.2-18.99-104.68-3.73-6.62-7.35-13.11-8.01-14.32-.66-1.31-1.41-2.27-1.67-2.31-.71.04-7.26,14.94-9.65,21.83-11,31.83-8.59,59.45,7.41,86.38,3.6,5.99,17.31,24.18,18.64,24.67Z"/><path class="cls-2" d="M242.83,1071.23l-.74-4.39c-2.12-12.13-6.87-24.46-13.47-34.89-7.36-11.6-19.44-22.72-34.97-32.13-14.08-8.49-26.21-13.89-48.99-21.78l-11.59-4,4.46,8.93c18.36,36.86,36.64,60.02,58.41,74.14,10.61,6.91,27.22,12.53,40.1,13.62l6.78.51Z"/><path class="cls-2" d="M194.33,961.88c.85.64,11.42-4.55,15.66-7.63,22.09-16.21,27.67-48.98,17.94-104.83-1.27-7.33-2.49-14.49-2.7-15.83-.18-1.43-.57-2.55-.79-2.66-.69-.16-12.05,12.22-16.7,18.12-21.42,27.28-28.63,54.21-22.67,84.23,1.37,6.69,8.15,27.76,9.25,28.59Z"/><path class="cls-2" d="M164.02,966.43l6.27,2.35.81-4.38c2.15-12.13,1.88-25.16-.81-36.89-3.01-13.06-10.68-26.95-22.22-40.17-10.48-11.94-20.17-20.41-39.13-34.17l-9.65-6.99,1.18,9.72c4.79,40.11,14.22,67.17,30.08,86.58,7.72,9.49,21.59,19.39,33.48,23.96Z"/><path class="cls-2" d="M167.33,855.8c.74.74,12.06-2.97,16.76-5.46,24.55-13.08,35.55-44.73,35.28-101.25-.03-7.41-.03-14.66-.02-16.01.06-1.44-.13-2.59-.34-2.74-.65-.25-13.96,10.47-19.54,15.69-25.74,24.11-37.38,49.78-36.51,80.26.23,6.8,3.41,28.54,4.37,29.5Z"/><path class="cls-2" d="M136.6,856.26l5.81,3.16,1.53-4.22c4.16-11.71,6.07-24.63,5.37-36.59-.79-13.31-6.05-28.07-15.25-42.68-8.36-13.21-16.52-22.87-32.97-39.01l-8.38-8.2-.46,9.77c-1.98,40.3,2.82,68.32,15.25,89.62,6.04,10.41,18.1,22.06,29.09,28.16Z"/><path class="cls-2" d="M154.43,750.2c.53.87,12.49-.53,17.69-2.04,27.17-7.94,45.69-36.67,59.33-91.86,1.79-7.24,3.57-14.31,3.92-15.62.41-1.39.51-2.56.34-2.74-.57-.37-16.2,7.48-22.92,11.48-31.04,18.47-48.72,41.23-55.36,71.14-1.45,6.68-3.69,28.51-3,29.64Z"/><path class="cls-2" d="M124.34,744.62l4.89,4.22,2.53-3.82c6.94-10.6,11.98-22.83,14.24-34.64,2.5-13.14,1-28.58-4.37-44.63-4.91-14.52-10.49-25.56-22.56-44.53l-6.15-9.64-2.85,9.44c-11.84,38.93-14.06,67.2-7.17,90.42,3.34,11.34,12.23,25.07,21.45,33.18Z"/><path class="cls-2" d="M189.51,647.62c27.94-5.42,49.65-32.3,69.53-85.96,2.61-7.04,5.19-13.91,5.69-15.18.57-1.35.8-2.5.65-2.69-.53-.42-16.97,5.96-24.12,9.32-33,15.54-53.18,36.57-63.21,65.71-2.2,6.51-6.94,28.02-6.37,29.21.43.91,12.49.61,17.83-.41Z"/><path class="cls-2" d="M142.39,639.73l4.38,4.65,2.96-3.57c8.12-9.91,14.53-21.62,18.13-33.16,3.99-12.85,4.26-28.34.76-44.8-3.22-14.9-7.51-26.38-17.35-46.35l-5.02-10.15-3.92,9.13c-16.24,37.64-21.68,65.57-17.48,89.29,2.02,11.59,9.3,26.05,17.54,34.96Z"/><path class="cls-2" d="M310.65,466.79c.86-1.22,1.33-2.31,1.23-2.52-.43-.51-17.95,2.87-25.7,4.92-35.77,9.46-60.18,26.54-76.42,53.36-3.59,6-12.96,26.26-12.67,27.52.22.97,12.11,2.79,17.57,2.72,28.59-.42,55.78-22.98,87.07-72.11,4.11-6.44,8.15-12.73,8.91-13.89Z"/><path class="cls-2" d="M173.46,542.12l3.68-2.98c10.14-8.3,19-18.65,25.06-29.34,6.74-11.9,10.41-27.04,10.58-43.8.11-15.17-1.57-27.19-6.83-48.49l-2.69-10.84-5.85,8.26c-24.19,34.07-35.66,60.49-36.76,84.49-.56,11.71,3.39,27.18,9.52,37.36l3.28,5.33Z"/><path class="cls-2" d="M243.7,460.2c.15.98,11.87,3.52,17.32,3.79,28.55,1.34,57.41-19.5,92.41-66.59,4.59-6.17,9.11-12.2,9.96-13.31.95-1.17,1.51-2.22,1.42-2.44-.39-.53-18.13,1.76-26.02,3.33-36.41,7.24-62.08,22.78-80.35,48.54-4.04,5.76-14.95,25.4-14.76,26.68Z"/><path class="cls-2" d="M220.74,450.82l3.9-2.75c10.75-7.66,20.39-17.44,27.26-27.73,7.64-11.46,12.46-26.33,13.93-43.04,1.28-15.13.53-27.22-3.08-48.8l-1.85-10.98-6.47,7.89c-26.76,32.5-40.23,58.16-43.18,82.04-1.47,11.65,1.29,27.32,6.62,37.85l2.86,5.51Z"/><path class="cls-2" d="M280.47,392.56l4.56-1.77c12.58-4.96,24.69-12.23,34.27-20.61,10.65-9.34,19.56-22.63,25.74-38.46,5.55-14.34,8.27-26.2,10.94-47.89l1.34-11.03-8.51,6.15c-35.14,25.35-55.49,47.09-65.15,69.52-4.74,10.93-6.54,26.71-4.39,38.11l1.19,5.98Z"/><path class="cls-2" d="M803.53,1225.49c-2.05,4.52-4.48,15.07-3.55,15.61,1.21.7,25.76.27,33.32-.54,33.88-3.77,60.57-17.87,83.44-44.2,4.95-5.71,14.84-19.06,14.47-19.59-.19-.16-1.49-.16-3.08.11-1.49.22-9.52,1.29-17.73,2.37-62.62,8.18-96.03,22.61-106.86,46.24Z"/><path class="cls-2" d="M893.39,1258.58c-17.55-5.94-34.67-8.39-49.54-7.11-13.35,1.17-27.37,4.78-39.71,10.19l-4.45,1.98,4.37,4.66c8.4,8.8,23.09,17.71,35.51,21.5,25.44,7.81,57.18,7.86,101.51.12l10.75-1.86-10.33-6.17c-20.32-12.12-32.24-17.88-48.11-23.3Z"/><path class="cls-2" d="M926.73,1235.66c1.41.29,24.34-7.54,31.14-10.59,30.44-13.8,50.2-35.15,61.72-66.84,2.49-6.87,6.73-22.42,6.17-22.81-.24-.1-1.47.3-2.86,1.03-1.32.65-8.47,4.1-15.78,7.6-55.81,26.65-81.77,50.34-82.98,75.85-.22,4.88,1.51,15.54,2.59,15.76Z"/><path class="cls-2" d="M1021.23,1223.83c-18.76-.28-35.81,2.6-49.3,8.31-12.12,5.14-23.94,12.78-33.49,21.61l-3.43,3.21,5.88,3.06c11.24,5.73,28.44,9.67,41.57,9.47,26.9-.36,56.78-9.91,95.54-30.62l9.4-5.01-12.06-2.68c-23.71-5.25-37.12-7.07-54.1-7.36Z"/><path class="cls-2" d="M1040.99,1189.48c1.44.05,22.36-11.43,28.42-15.54,27.07-18.58,42.07-42.82,46.85-75.86,1.03-7.16,1.98-23.14,1.35-23.44-.25-.05-1.38.54-2.59,1.49-1.17.86-7.47,5.42-13.94,10.07-49.34,35.4-69.96,62.95-65.88,88.23.8,4.83,4.69,15.02,5.8,15.06Z"/><path class="cls-2" d="M1131.42,1162.28c-18.5,2.82-34.65,8.46-46.74,16.29-10.85,7.05-20.88,16.51-28.45,26.76l-2.71,3.72,6.41,2.04c12.23,3.78,29.95,4.82,42.81,2.46,26.36-4.78,53.75-19.1,87.57-45.84l8.21-6.47-12.41-.65c-24.39-1.25-37.94-.83-54.7,1.69Z"/><path class="cls-2" d="M1201.75,1006.52c-.26-.01-1.24.76-2.24,1.89-.97,1.04-6.21,6.57-11.6,12.21-41.11,42.97-55.64,73.47-46.37,97.62,1.79,4.61,7.74,13.98,8.84,13.84,1.43-.19,19.59-14.94,24.69-19.99,22.73-22.75,32.43-49.06,30.24-82.31-.48-7.2-2.87-23.07-3.55-23.25Z"/><path class="cls-2" d="M1233.57,1090.34c-17.59,5.84-32.29,14.07-42.53,23.77-9.19,8.72-17.08,19.68-22.38,31.02l-1.89,4.11,6.72.94c12.8,1.69,30.43-.24,42.58-4.69,24.91-9.08,48.84-27.69,76.5-59.58l6.72-7.72-12.33,1.42c-24.23,2.82-37.45,5.49-53.39,10.74Z"/><path class="cls-2" d="M1236.67,1058.18c1.34-.49,15.04-18.68,18.64-24.67,16-26.93,18.41-54.54,7.41-86.38-2.39-6.89-8.94-21.79-9.65-21.83-.26.04-1.01,1-1.67,2.31-.66,1.22-4.28,7.7-8.01,14.32-28.47,50.48-34.44,83.19-18.99,104.68,2.97,4.1,11.24,11.93,12.27,11.56Z"/><path class="cls-2" d="M1306.34,999.94c-15.53,9.41-27.61,20.53-34.97,32.13-6.6,10.43-11.34,22.75-13.47,34.89l-.74,4.39,6.78-.51c12.89-1.09,29.49-6.71,40.1-13.62,21.77-14.11,40.05-37.28,58.41-74.14l4.46-8.93-11.59,4c-22.78,7.89-34.91,13.3-48.99,21.78Z"/><path class="cls-2" d="M1290.02,954.37c4.23,3.09,14.8,8.27,15.66,7.63,1.11-.83,7.89-21.9,9.25-28.59,5.96-30.02-1.25-56.96-22.67-84.23-4.65-5.9-16.01-18.28-16.7-18.12-.23.11-.61,1.23-.79,2.66-.21,1.34-1.43,8.5-2.7,15.83-9.72,55.85-4.15,88.61,17.94,104.83Z"/><path class="cls-2" d="M1351.93,887.46c-11.53,13.22-19.21,27.11-22.22,40.17-2.69,11.73-2.97,24.76-.81,36.89l.81,4.38,6.27-2.35c11.89-4.57,25.76-14.48,33.48-23.96,15.86-19.4,25.28-46.47,30.07-86.58l1.18-9.72-9.65,6.99c-18.96,13.76-28.65,22.23-39.13,34.17Z"/><path class="cls-2" d="M1332.67,855.92c.96-.97,4.13-22.71,4.37-29.5.87-30.48-10.77-56.15-36.51-80.26-5.58-5.22-18.89-15.94-19.54-15.69-.21.14-.4,1.29-.34,2.74.02,1.35.01,8.6-.02,16.01-.27,56.52,10.73,88.17,35.28,101.25,4.7,2.49,16.02,6.2,16.76,5.46Z"/><path class="cls-2" d="M1365.93,776.05c-9.19,14.61-14.45,29.37-15.25,42.68-.7,11.96,1.21,24.88,5.37,36.59l1.53,4.22,5.81-3.16c10.99-6.1,23.05-17.75,29.09-28.16,12.43-21.3,17.22-49.32,15.25-89.62l-.46-9.77-8.38,8.2c-16.44,16.14-24.6,25.81-32.97,39.01Z"/><path class="cls-2" d="M1345.57,750.32c.69-1.13-1.55-22.96-3-29.64-6.65-29.9-24.32-52.67-55.36-71.14-6.73-4-22.35-11.85-22.93-11.48-.17.18-.07,1.34.34,2.74.35,1.31,2.13,8.39,3.92,15.62,13.64,55.19,32.16,83.91,59.33,91.86,5.2,1.5,17.16,2.91,17.69,2.04Z"/><path class="cls-2" d="M1354,710.5c2.26,11.81,7.3,24.04,14.24,34.64l2.53,3.82,4.89-4.22c9.22-8.11,18.12-21.84,21.45-33.18,6.89-23.22,4.67-51.49-7.17-90.42l-2.85-9.44-6.15,9.64c-12.07,18.97-17.66,30-22.56,44.53-5.37,16.06-6.87,31.49-4.37,44.63Z"/><path class="cls-2" d="M1258.73,553.23c-7.15-3.36-23.59-9.74-24.12-9.32-.15.19.08,1.34.65,2.69.5,1.28,3.08,8.15,5.69,15.18,19.89,53.66,41.59,80.54,69.53,85.96,5.34,1.02,17.4,1.32,17.83.41.56-1.19-4.17-22.7-6.37-29.21-10.03-29.14-30.22-50.17-63.21-65.71Z"/><path class="cls-2" d="M1332.14,607.77c3.6,11.54,10.02,23.24,18.13,33.16l2.96,3.57,4.38-4.65c8.24-8.91,15.52-23.38,17.54-34.96,4.19-23.73-1.25-51.65-17.48-89.29l-3.92-9.13-5.02,10.15c-9.84,19.97-14.13,31.46-17.35,46.35-3.51,16.46-3.23,31.95.76,44.8Z"/><path class="cls-2" d="M1285.34,552.9c5.46.07,17.35-1.75,17.57-2.72.29-1.26-9.08-21.53-12.67-27.52-16.24-26.82-40.65-43.9-76.42-53.36-7.75-2.04-25.27-5.42-25.7-4.92-.1.21.37,1.3,1.23,2.52.77,1.16,4.81,7.45,8.91,13.89,31.29,49.13,58.48,71.69,87.07,72.11Z"/><path class="cls-2" d="M1297.79,509.92c6.07,10.68,14.93,21.04,25.06,29.34l3.68,2.98,3.28-5.33c6.13-10.18,10.09-25.64,9.52-37.36-1.1-24-12.57-50.43-36.76-84.49l-5.85-8.26-2.69,10.84c-5.26,21.31-6.94,33.32-6.83,48.49.18,16.76,3.85,31.9,10.58,43.8Z"/><path class="cls-2" d="M1146.57,397.52c35,47.09,63.86,67.92,92.41,66.59,5.46-.27,17.18-2.81,17.32-3.79.19-1.28-10.71-20.92-14.76-26.68-18.27-25.76-43.94-41.3-80.35-48.54-7.89-1.56-25.63-3.86-26.02-3.33-.08.22.47,1.28,1.42,2.44.85,1.11,5.37,7.14,9.96,13.31Z"/><path class="cls-2" d="M1248.09,420.46c6.87,10.29,16.51,20.07,27.26,27.73l3.9,2.75,2.86-5.51c5.33-10.53,8.09-26.2,6.62-37.85-2.95-23.88-16.42-49.54-43.18-82.04l-6.47-7.89-1.85,10.97c-3.6,21.58-4.36,33.67-3.08,48.8,1.47,16.71,6.29,31.59,13.93,43.04Z"/><path class="cls-2" d="M1154.96,331.84c6.18,15.82,15.09,29.11,25.74,38.46,9.58,8.38,21.69,15.65,34.27,20.61l4.56,1.77,1.19-5.98c2.15-11.4.35-27.18-4.39-38.11-9.66-22.42-30.01-44.17-65.15-69.52l-8.51-6.15,1.34,11.03c2.67,21.69,5.38,33.55,10.94,47.89Z"/><path class="cls-2" d="M476.09,215.35c.63.42,1.05.63,1.68.63.84,0,1.68-.63,1.88-1.68,1.05-3.77,6.28-6.07,14.24-7.12,3.56-.63,7.75-.84,12.15-.84,6.07,0,12.77.63,19.68,1.26-.21.21-.63.63-.63,1.05-5.86,13.19-28.48,85.44-28.48,102.61l.21,2.3c1.05,3.98,7.33,5.44,12.57,5.44h1.05c1.26,0,2.09-1.05,2.09-2.09.21-18.22,22.41-85.86,30.16-103.66l.21-2.09v-.84c.63.21,2.51.63,11.31,2.3.24.05.46.1.7.15-7.49,19.73-26.04,73.1-26.04,88.02.63,6.49,4.82,7.75,11.73,7.75,2.51,0,4.19,0,4.19-2.09,0-4.4,2.09-12.57,4.82-22.2,3.77-6.7,16.54-28.27,28.06-38.95.63-.63,1.47-1.47,2.09-1.47s.84.42.84,1.47c0,2.3-12.15,35.81-12.57,51.31,0,10.26,5.44,12.15,12.77,12.15l5.86-.21c6.15-.32,10.31-5.79,18.64-23.63.15,12.98,6.69,23.43,24.28,24.05h1.26c9.84,0,17.38-4.4,23.45-12.57.42-.21.63-.84.63-1.47l-.42-1.26c-.42-.42-.84-.63-1.47-.63s-1.26.21-1.88.84c-4.4,4.4-10.26,10.47-17.17,10.47l-2.3-.21c-6.7-1.47-9.21-9.63-9.21-17.38,0-2.93.21-5.65.84-8.17,1.68,1.47,3.77,2.09,5.86,2.09,11.31,0,26.6-18.22,27.01-33.09v-.42c0-7.96-6.49-12.15-14.45-12.36h-.63c-15.5,0-26.6,16.12-31.83,29.74-.7,1.87-1.31,3.75-1.84,5.63-11.34,25.58-15.53,33.77-20.99,34.16-.84,0-1.26-1.26-1.26-3.77,0-12.15,10.05-40.21,12.98-54.66l.21-2.51c0-5.65-4.4-8.8-9.63-8.8-9,0-17.17,10.68-23.87,18.85-3.77,4.82-7.33,10.05-10.26,14.66,6.65-20.32,14.69-42.32,18.42-51.98,2.33.29,4.52.47,6.5.47,3.35,0,6.07-.42,8.17-1.47,2.51-1.26,4.82-4.82,5.86-8.8.42-1.47.63-2.93.63-4.61,0-2.09-.42-4.19-1.26-6.07-.42-1.05-1.26-1.47-1.88-1.47s-1.05.21-1.47.63c-1.88,2.09-5.86,2.93-11.1,2.93-8.8,0-21.15-2.3-34.13-4.61-13.61-2.51-27.85-5.03-39.58-5.24h-3.77c-9.42,0-19.68,1.05-25.13,8.38-.84,1.05-1.88,6.7-1.88,11.52,0,3.35.63,6.49,2.09,7.54ZM632.52,257.23c2.09-2.93,9.01-11.94,13.82-11.94.63,0,1.05.21,1.68.42.63.42.84,1.26.84,2.3,0,6.7-11.73,25.13-20.73,25.13-1.26,0-2.09-.21-3.14-.84,1.68-4.82,4.4-10.26,7.54-15.08Z"/><path class="cls-2" d="M713.77,238.39l1.68.42c1.05,0,1.88-.63,2.09-1.88,5.44-26.6,40-39.58,66.18-39.58,3.14,0,6.07.21,8.79.63,12.57,1.67,16.96,8.59,16.96,16.75,0,9.42-5.65,20.52-11.31,28.27-7.75,10.68-17.8,19.06-25.55,19.06l-2.72-.42c5.44-16.75,11.1-34.55,17.38-50.89l.21-.84c0-3.35-7.12-6.49-12.36-6.49-2.51,0-4.61.63-5.24,2.3-3.35,7.75-14.66,41.46-22.62,69.11-4.4,15.92-7.75,29.74-7.75,36.23,0,.84,0,1.68.21,2.3,1.05,4.61,6.7,5.44,11.52,5.44h2.09c1.26,0,2.09-1.05,2.09-2.09,0-7.54,7.33-32.46,12.15-47.54,3.35,2.72,6.07,3.98,10.26,3.98h1.88c16.54-1.47,31.62-14.87,39.37-30.78,3.98-8.17,5.86-15.5,5.86-21.78,0-21.15-20.1-32.46-47.96-32.67h-2.51c-24.5,0-47.96,5.86-67.22,22.41-2.09,1.68-2.93,4.82-2.93,8.17,0,7.75,4.61,17.8,9.42,19.89Z"/><path class="cls-2" d="M835.86,308.54c14.45,0,24.71-16.75,29.32-29.95h1.67c5.27,0,10.71-1.83,15.06-5.17-1.78,7.91-2.92,15.23-2.92,21.08,0,3.56.42,6.7,1.47,9.01,2.09,4.4,6.91,5.03,11.94,5.03h2.93c4.4-.21,9.01-5.65,11.31-9,3.26-4.31,6.47-9.72,9.42-15.25-.66,3.88-1.05,7.5-1.05,10.64,0,3.56.42,6.49,1.68,8.59,2.3,4.4,7.75,5.03,12.98,5.03h2.72c5.86-.21,12.56-9.42,17.59-18.64-2.51,9.42-3.77,14.03-6.49,21.36-19.06,1.26-29.95,5.65-32.04,18.85l-.21,3.35c0,7.96,4.82,13.61,13.82,14.24h1.47c17.59,0,26.39-17.59,32.04-32.04,8.38-3.35,14.66-9.01,20.31-17.17,1.16-1.67,2.29-3.46,3.4-5.36.56,8.46,6.43,15.83,18.16,15.83,15.29,0,22.83-13.4,22.83-27.22,0-9-2.51-17.8-2.51-26.6,0-5.65,1.05-11.31,4.82-16.96.21-.42.42-.84.42-1.26,0-1.05-.84-2.09-2.09-2.09h-15.71c-3.77,0-14.66,25.76-16.54,29.53-.12.24-.17.48-.19.68-5.88,12.98-10.61,23.37-16.14,31.15-4.19,6.28-8.8,10.89-14.66,14.03,4.82-13.19,9.63-28.9,14.03-42.93,2.93-10.05,5.65-19.06,8.17-25.76l.21-.84c0-3.35-6.49-6.07-11.52-6.07-2.72,0-5.03.84-5.65,2.72-2.72,7.54-5.24,15.08-7.33,22.41-5.44,15.29-10.68,25.97-14.87,32.88-5.44,8.8-9.42,11.52-11.73,11.73-1.05,0-1.67-1.26-1.67-3.35,0-12.36,15.29-54.45,17.17-59.05l.21-.84c0-3.35-6.49-6.49-11.52-6.49-2.51,0-4.4.84-5.24,2.51-2.48,5.19-6.92,16.66-10.47,28.79-4.26,8.96-10.88,22.89-16.96,31.31-1.26,1.68-5.24,7.12-7.96,7.12h-.42c-.42,0-.42-.84-.42-2.09l.21-4.19c2.3-21.57,24.29-79.16,26.8-85.86l.21-.63c0-2.93-6.91-6.49-12.36-6.49-2.51,0-4.61.84-5.65,2.51-2.32,5.37-13.39,32.76-19.97,57.58-3.78,6.09-10.82,9.23-17.3,9.23,1.47-4.82,2.72-11.31,2.72-17.38,0-9.84-2.93-19.27-12.98-21.78-1.88-.42-3.56-.63-5.24-.63-19.48,0-33.92,28.27-33.92,49.84,0,13.4,5.44,24.08,18.64,24.08ZM921.92,338.49c-4.61,0-6.07-2.72-6.07-6.07,0-1.26.21-2.72.63-4.19,2.09-7.33,8.17-11.52,25.55-12.56-4.82,11.73-12.15,22.83-20.1,22.83ZM995.64,265.82c.03-.06.05-.13.07-.19l7.25-15.52c-.21,1.47-.21,2.93-.21,4.4,0,9.21,2.51,20.94,2.51,30.99,0,5.86-.84,11.1-3.77,14.87-1.05,1.26-2.51,2.3-3.77,2.3-.42,0-.84-.21-1.26-.42-.63-.42-1.05-1.68-1.05-3.14,0-4.4,2.93-11.94,6.07-14.87.63-.42.84-.84.84-1.47,0-2.72-6.07-7.12-10.89-7.12-.09,0-.18,0-.27.01,1.44-3.11,2.91-6.39,4.46-9.86ZM853.45,247.39h1.05c2.72,0,3.98,2.09,4.61,4.82-3.98,1.05-7.75,7.12-7.75,13.19,0,3.56,1.26,7.33,4.61,9.84-2.3,6.49-10.47,26.81-18.64,26.81h-.63c-3.14-.42-4.4-4.19-4.4-9.42,0-15.08,11.1-43.56,21.15-45.23Z"/><path class="cls-2" d="M832.57,415.31l1.99,12.59h9.84l-12.76-66.44h-10.43l-12.85,66.27v.17h9.79l1.99-12.59h12.42ZM826.34,376.85l4.83,29.94h-9.71l4.88-29.94Z"/><polygon class="cls-2" points="877.86 412.43 873.24 385.08 865.86 385.08 861.23 412.43 856.57 385.08 847.29 385.08 856.49 427.99 864.88 427.99 869.5 404.29 874.13 427.99 882.61 427.99 891.81 385.08 882.52 385.08 877.86 412.43"/><path class="cls-2" d="M901.73,428.07c1.5,0,3.69-.21,6.57-.64,2.2-.34,4.41-.68,6.61-1.02v1.48h9.29v-37.53c0-3.53-1.79-5.3-5.38-5.3h-16.41c-3.65,0-5.47,1.77-5.47,5.3v8.01h8.78v-6.11h9.29v9.84h-13.1c-3.65,0-5.47,1.77-5.47,5.3v15.43c0,3.48,1.77,5.22,5.3,5.22ZM905.71,408.7h9.29v11.49l-9.29.34v-11.83Z"/><path class="cls-2" d="M940.86,393.35l7.67-.17v9.79h9.62v-12.85c0-3.48-1.77-5.22-5.3-5.22-1.61,0-3.62.21-6.02.64-1.98.37-3.97.74-5.98,1.1v-1.57h-9.71v42.83h9.71v-34.56Z"/><path class="cls-2" d="M971.35,428.16c.79,0,4.47-.58,11.02-1.74v1.48h9.67v-66.36h-9.67v23.53c-.65,0-1.75-.03-3.31-.08-1.56-.06-2.74-.08-3.56-.08-3.68,0-6.42.51-8.23,1.53-2.49,1.36-3.73,3.77-3.73,7.25v26.5c0,2.46.69,4.4,2.08,5.83,1.38,1.43,3.29,2.14,5.72,2.14ZM973.17,396.4c0-2.15,1.07-3.22,3.22-3.22h5.98v26.37c-3.62.31-5.67.47-6.15.47-2.04,0-3.05-1.05-3.05-3.14v-20.48Z"/><path class="cls-2" d="M1004.3,427.9h16.32c3.59,0,5.39-1.77,5.39-5.3v-10.6c0-2.04-.99-3.62-2.97-4.75l-14.84-8.69v-6.19h8.52v6.61h9.2v-8.61c0-3.53-1.79-5.3-5.38-5.3h-16.16c-3.65,0-5.47,1.77-5.47,5.3v10.01c0,1.95.98,3.51,2.93,4.66l14.88,8.78v6.78h-8.52v-7.21h-9.29v9.2c0,3.53,1.79,5.3,5.39,5.3Z"/><path class="cls-2" d="M484.02,428.16h-10.03v-67.05h10.03v67.05Z"/><path class="cls-2" d="M539.46,428.16h-9.73v-35.09l-9.21.17v34.92h-9.77v-35.09l-9.21.17v34.92h-9.81v-43.27h9.81v1.59c2.28-.37,4.56-.74,6.81-1.11,2.77-.43,5.07-.64,6.9-.64,2.26,0,3.71.64,4.37,1.93,2.4-.37,4.8-.76,7.2-1.16,3.17-.51,5.6-.77,7.28-.77,3.57,0,5.36,1.76,5.36,5.27v38.17Z"/><path class="cls-2" d="M594.22,428.16h-9.73v-35.09l-9.21.17v34.92h-9.77v-35.09l-9.21.17v34.92h-9.81v-43.27h9.81v1.59c2.28-.37,4.56-.74,6.81-1.11,2.77-.43,5.07-.64,6.9-.64,2.26,0,3.71.64,4.37,1.93,2.4-.37,4.8-.76,7.2-1.16,3.17-.51,5.6-.77,7.28-.77,3.57,0,5.36,1.76,5.36,5.27v38.17Z"/><path class="cls-2" d="M629.22,422.81c0,3.57-1.84,5.36-5.53,5.36h-16.92c-3.68,0-5.53-1.78-5.53-5.36v-32.56c0-3.57,1.84-5.36,5.53-5.36h16.92c3.68,0,5.53,1.79,5.53,5.36v15.9l-2.7,2.7h-15.89v12.13h9.21v-7.2h9.38v9.04ZM619.84,402.46v-10.37h-9.21v10.37h9.21Z"/><path class="cls-2" d="M663.62,402.97h-9.73v-9.9l-7.76.17v34.92h-9.81v-43.27h9.81v1.59c2.03-.37,4.04-.74,6.04-1.11,2.43-.43,4.46-.64,6.08-.64,3.57,0,5.35,1.76,5.35,5.27v12.98Z"/><path class="cls-2" d="M696.36,422.81c0,3.57-1.82,5.36-5.44,5.36h-16.49c-3.63,0-5.44-1.78-5.44-5.36v-9.3h9.38v7.28h8.61v-6.86l-15.04-8.87c-1.97-1.17-2.96-2.74-2.96-4.71v-10.11c0-3.57,1.84-5.36,5.53-5.36h16.32c3.63,0,5.44,1.79,5.44,5.36v8.7h-9.3v-6.68h-8.61v6.26l14.99,8.78c2,1.14,3,2.74,3,4.8v10.71Z"/><path class="cls-2" d="M713.19,378.68h-9.81v-10.11h9.81v10.11ZM713.11,428.16h-9.64v-43.27h9.64v43.27Z"/><path class="cls-2" d="M749.7,384.89l-11.05,43.36h-9.38l-11.06-43.36h10.07l5.7,28.45,5.7-28.45h10.03Z"/><path class="cls-2" d="M782.52,422.81c0,3.57-1.84,5.36-5.53,5.36h-16.92c-3.68,0-5.53-1.78-5.53-5.36v-32.56c0-3.57,1.84-5.36,5.53-5.36h16.92c3.68,0,5.53,1.79,5.53,5.36v15.9l-2.7,2.7h-15.89v12.13h9.21v-7.2h9.38v9.04ZM773.14,402.46v-10.37h-9.21v10.37h9.21Z"/></g><g id="_2025_Nominee" class="cls-1"><path class="cls-2" d="M515.84,512.94c0,2.69-.93,5.68-2.78,8.96l-23.48,41.01h26.16v11.19h-41.45v-7.92l28.94-50.89v-15.78h-15.56v15.89h-12.51v-19c0-5.17,2.6-7.75,7.81-7.75h25.06c5.21,0,7.81,2.59,7.81,7.75v16.55Z"/><path class="cls-2" d="M566.96,566.29c0,5.21-2.57,7.81-7.7,7.81h-26.65c-5.06,0-7.59-2.6-7.59-7.81v-69.79c0-5.24,2.58-7.86,7.75-7.86h26.48c5.13,0,7.7,2.62,7.7,7.86v69.79ZM554.45,563.12v-63.51h-16.87v63.51h16.87Z"/><path class="cls-2" d="M617.36,512.94c0,2.69-.93,5.68-2.78,8.96l-23.48,41.01h26.16v11.19h-41.45v-7.92l28.94-50.89v-15.78h-15.56v15.89h-12.51v-19c0-5.17,2.6-7.75,7.81-7.75h25.06c5.21,0,7.81,2.59,7.81,7.75v16.55Z"/><path class="cls-2" d="M667.38,566.29c0,5.21-2.58,7.81-7.75,7.81h-25.61c-5.06,0-7.59-2.6-7.59-7.81v-19.71h12.56v16.55h15.84v-32.87h-28.4l1.37-41.61h38.99v11.19h-27.14l-.82,19.44h20.81c5.17,0,7.75,2.59,7.75,7.75v39.26Z"/><path class="cls-2" d="M743.67,574.1h-11.19l-20.48-53.79c.55,2.62.82,4.68.82,6.17v47.62h-12.45v-85.46h11.2l20.48,52.7c-.55-2.62-.82-4.68-.82-6.17v-46.53h12.45v85.46Z"/><path class="cls-2" d="M797.02,566.29c0,5.21-2.59,7.81-7.75,7.81h-27.74c-5.06,0-7.59-2.6-7.59-7.81v-69.79c0-5.24,2.53-7.86,7.59-7.86h27.74c5.17,0,7.75,2.62,7.75,7.86v69.79ZM784.24,563.12v-63.51h-17.53v63.51h17.53Z"/><path class="cls-2" d="M858.94,574.1h-12.29v-42.16c0-2.22.25-5.31.76-9.28l-11.03,43.63h-6.5l-11.08-43.63c.51,4.04.76,7.14.76,9.28v42.16h-12.29v-85.46h12.07l13.43,47.24c.15.51.25,1.8.33,3.88,0-.91.11-2.2.33-3.88l13.43-47.24h12.07v85.46Z"/><path class="cls-2" d="M882.15,574.1h-12.78v-85.46h12.78v85.46Z"/><path class="cls-2" d="M935.94,574.1h-11.19l-20.48-53.79c.55,2.62.82,4.68.82,6.17v47.62h-12.45v-85.46h11.2l20.48,52.7c-.55-2.62-.82-4.68-.82-6.17v-46.53h12.45v85.46Z"/><path class="cls-2" d="M981.64,574.1h-35.44v-85.46h35.11v11.3h-22.33v24.96h19.22v11.08h-19.22v26.81h22.66v11.3Z"/><path class="cls-2" d="M1025.82,574.1h-35.44v-85.46h35.11v11.3h-22.33v24.96h19.22v11.08h-19.22v26.81h22.66v11.3Z"/></g></g><g id="Categories"><g id="SPLOTY" class="cls-4"><path class="cls-2" d="M471.84,780.02c0,4.47-2.22,6.7-6.66,6.7h-22.08c-4.41,0-6.61-2.23-6.61-6.7v-17.48h10.97v14.95h13.41v-14.39l-21.98-20.81c-1.59-1.53-2.39-3.48-2.39-5.86v-16.31c0-4.5,2.2-6.75,6.61-6.75h22.08c4.44,0,6.66,2.22,6.66,6.66v16.41h-10.97v-13.83h-13.41v13.27l21.98,20.72c1.59,1.5,2.39,3.48,2.39,5.95v17.48Z"/><path class="cls-2" d="M516,753.3c0,4.56-2.23,6.84-6.7,6.84h-17.77v26.58h-10.97v-73.36h28.73c4.47,0,6.7,2.25,6.7,6.75v33.19ZM504.94,750.73v-27.94h-13.41v27.94h13.41Z"/><path class="cls-2" d="M552.61,786.73h-28.83v-73.36h10.97v63.56h17.86v9.8Z"/><path class="cls-2" d="M596.3,786.73h-10.88l-2.2-13.92h-13.73l-2.2,13.92h-10.83v-.19l14.2-73.27h11.53l14.11,73.45ZM581.67,763.38l-5.34-33.09-5.39,33.09h10.73Z"/><path class="cls-2" d="M634.31,723.07h-12.09v63.66h-10.92v-63.66h-12.09v-9.7h35.11v9.7Z"/><path class="cls-2" d="M696.66,780.02c0,4.47-2.22,6.7-6.66,6.7h-23.81c-4.34,0-6.52-2.23-6.52-6.7v-59.91c0-4.5,2.17-6.75,6.52-6.75h23.81c4.44,0,6.66,2.25,6.66,6.75v59.91ZM685.69,777.3v-54.52h-15.05v54.52h15.05Z"/><path class="cls-2" d="M735.42,723.07h-18.98v21.7h16.22v9.52h-16.22v32.44h-10.97v-73.36h29.95v9.7Z"/><path class="cls-2" d="M793.31,723.07h-12.09v63.66h-10.92v-63.66h-12.09v-9.7h35.11v9.7Z"/><path class="cls-2" d="M835.78,786.73h-11.06v-32.91h-14.86v32.91h-10.97v-73.36h10.97v30.23h14.86v-30.23h11.06v73.36Z"/><path class="cls-2" d="M874.92,786.73h-30.42v-73.36h30.14v9.7h-19.17v21.42h16.5v9.52h-16.5v23.02h19.45v9.7Z"/><path class="cls-2" d="M939.09,713.79l-9.7,30.66c-1.19,3.03-2.8,8.14-4.83,15.33v26.95h-11.02v-26.95c-.5-2.44-1.22-5.02-2.16-7.73-1.66-4.66-2.55-7.19-2.67-7.59l-9.66-30.66s-.03-.17,0-.42h11.3l8.77,31.88,8.72-31.88h11.25v.42Z"/><path class="cls-2" d="M975.14,786.73h-30.42v-73.36h30.14v9.7h-19.17v21.42h16.5v9.52h-16.5v23.02h19.45v9.7Z"/><path class="cls-2" d="M1019.81,786.73h-10.88l-2.2-13.92h-13.73l-2.2,13.92h-10.83v-.19l14.2-73.27h11.53l14.11,73.45ZM1005.19,763.38l-5.34-33.09-5.39,33.09h10.73Z"/><path class="cls-2" d="M1063.5,786.73h-11.44l-12.09-34.08v-6.61h10.78v-23.25h-13.83v63.94h-10.97v-73.36h29.11c4.41,0,6.61,2.25,6.61,6.75v26.67c0,3.09-1.05,5.09-3.14,6-1.12.47-3.5.7-7.12.7l12.09,33.23Z"/></g></g><g id="_2025_Nominations"><g id="Volumetric_Wedding"><path class="cls-2" d="M466.17,909.79l-14.06,73.45h-10.92l-14.02-73.45h11.02l8.2,50.3c.06,1.44.16,3.53.28,6.28-.03-1.44.06-3.53.28-6.28l8.25-50.3h10.97Z"/><path class="cls-2" d="M503.02,977.29c0,3.91-1.98,5.86-5.95,5.86h-19.22c-4.03,0-6.05-1.95-6.05-5.86v-35.62c0-3.91,2.02-5.86,6.05-5.86h19.22c3.97,0,5.95,1.95,5.95,5.86v35.62ZM492.52,974.25v-29.48h-10.17v29.48h10.17Z"/><path class="cls-2" d="M521.58,983.15h-10.55v-73.36h10.55v73.36Z"/><path class="cls-2" d="M561.05,983.15h-10.69v-1.64c-2.47.41-4.95.81-7.45,1.22-3.03.47-5.53.7-7.5.7-3.91,0-5.86-1.95-5.86-5.86v-41.77h10.64v38.44l10.17-.23v-38.2h10.69v47.34Z"/><path class="cls-2" d="M621.05,983.15h-10.64v-38.39l-10.08.19v38.2h-10.69v-38.39l-10.08.19v38.2h-10.73v-47.34h10.73v1.73c2.5-.41,4.98-.81,7.45-1.22,3.03-.47,5.55-.7,7.55-.7,2.47,0,4.06.7,4.78,2.11,2.62-.41,5.25-.83,7.88-1.27,3.47-.56,6.12-.84,7.97-.84,3.91,0,5.86,1.92,5.86,5.77v41.77Z"/><path class="cls-2" d="M659.34,977.29c0,3.91-2.02,5.86-6.05,5.86h-18.52c-4.03,0-6.05-1.95-6.05-5.86v-35.62c0-3.91,2.02-5.86,6.05-5.86h18.52c4.03,0,6.05,1.95,6.05,5.86v17.39l-2.95,2.95h-17.39v13.27h10.08v-7.88h10.27v9.89ZM649.08,955.03v-11.34h-10.08v11.34h10.08Z"/><path class="cls-2" d="M687.56,983.15h-11.91c-3.97,0-5.95-1.95-5.95-5.86v-32.34h-5.06v-9.14h5.06v-12.84h10.69v12.84h6.89v9.14h-6.89v29.06h7.17v9.14Z"/><path class="cls-2" d="M723.37,955.59h-10.64v-10.83l-8.48.19v38.2h-10.73v-47.34h10.73v1.73c2.22-.41,4.42-.81,6.61-1.22,2.66-.47,4.88-.7,6.66-.7,3.91,0,5.86,1.92,5.86,5.77v14.2Z"/><path class="cls-2" d="M740.34,929.01h-10.73v-11.06h10.73v11.06ZM740.25,983.15h-10.55v-47.34h10.55v47.34Z"/><path class="cls-2" d="M778.83,977.29c0,3.91-1.98,5.86-5.95,5.86h-18.61c-4.03,0-6.05-1.95-6.05-5.86v-35.62c0-3.91,2.02-5.86,6.05-5.86h18.61c3.97,0,5.95,1.95,5.95,5.86v11.25h-10.45v-8.16h-9.61v29.48h9.61v-9.05h10.45v12.09Z"/><path class="cls-2" d="M861,909.79l-10.73,73.45h-10.73l-6.56-41.58c-.06-1.5-.19-3.73-.38-6.7,0,1.5-.12,3.73-.38,6.7l-6.52,41.58h-10.78l-10.73-73.45h11.11l5.67,43.5c.09,1.5.22,3.73.38,6.7.03-1.5.17-3.73.42-6.7l6.33-43.5h9l6.33,43.5c.09,1.5.23,3.73.42,6.7.03-1.5.16-3.73.38-6.7l5.67-43.5h11.11Z"/><path class="cls-2" d="M897.19,977.29c0,3.91-2.02,5.86-6.05,5.86h-18.52c-4.03,0-6.05-1.95-6.05-5.86v-35.62c0-3.91,2.02-5.86,6.05-5.86h18.52c4.03,0,6.05,1.95,6.05,5.86v17.39l-2.95,2.95h-17.39v13.27h10.08v-7.88h10.27v9.89ZM886.92,955.03v-11.34h-10.08v11.34h10.08Z"/><path class="cls-2" d="M936.37,983.15h-10.69v-1.64c-7.25,1.28-11.31,1.92-12.19,1.92-2.69,0-4.8-.79-6.33-2.37s-2.3-3.73-2.3-6.45v-29.3c0-3.84,1.38-6.52,4.12-8.02,2-1.12,5.03-1.69,9.09-1.69.91,0,2.22.03,3.94.09s2.94.09,3.66.09v-26.02h10.69v73.36ZM925.69,973.92v-29.16h-6.61c-2.38,0-3.56,1.19-3.56,3.56v22.64c0,2.31,1.12,3.47,3.38,3.47.53,0,2.8-.17,6.8-.52Z"/><path class="cls-2" d="M975.56,983.15h-10.69v-1.64c-7.25,1.28-11.31,1.92-12.19,1.92-2.69,0-4.8-.79-6.33-2.37s-2.3-3.73-2.3-6.45v-29.3c0-3.84,1.38-6.52,4.12-8.02,2-1.12,5.03-1.69,9.09-1.69.91,0,2.22.03,3.94.09s2.94.09,3.66.09v-26.02h10.69v73.36ZM964.87,973.92v-29.16h-6.61c-2.38,0-3.56,1.19-3.56,3.56v22.64c0,2.31,1.12,3.47,3.38,3.47.53,0,2.8-.17,6.8-.52Z"/><path class="cls-2" d="M994.27,929.01h-10.73v-11.06h10.73v11.06ZM994.17,983.15h-10.55v-47.34h10.55v47.34Z"/><path class="cls-2" d="M1033.73,983.15h-10.78v-38.39l-10.08.19v38.2h-10.73v-47.34h10.73v1.73c2.5-.41,4.98-.8,7.45-1.17,3.06-.5,5.58-.75,7.55-.75,3.91,0,5.86,1.92,5.86,5.77v41.77Z"/><path class="cls-2" d="M1072.83,994.59c0,3.91-2.02,5.86-6.05,5.86h-18.66c-4.03,0-6.05-1.95-6.05-5.86v-7.59h10.36v5.67h9.7v-9.8h-11.02c-3,0-5.38-.84-7.15-2.53s-2.65-4.02-2.65-6.98v-28.97c0-2.72.77-4.86,2.3-6.42s3.64-2.34,6.33-2.34c1.34,0,5.41.64,12.19,1.92v-1.73h10.69v58.78ZM1062.14,974.25v-29.11c-3.59-.38-5.83-.56-6.7-.56-2.31,0-3.47,1.14-3.47,3.42v22.69c0,2.38,1.19,3.56,3.56,3.56h6.61Z"/></g></g></svg>